<svg xmlns="http://www.w3.org/2000/svg" xmlns:xlink="http://www.w3.org/1999/xlink" width="100%" height="100%" display='block' viewBox="0 0 14 14">
  <defs>
    <clipPath id="clip-Cross">
      <rect width="14" height="14"/>
    </clipPath>
  </defs>
  <g id="Cross" clip-path="url(#clip-Cross)">
    <path id="Exclusion_11" data-name="Exclusion 11" d="M7,14a7,7,0,1,1,7-7A7.008,7.008,0,0,1,7,14ZM7,8.054H7L8.516,9.569A.745.745,0,0,0,9.57,8.515L8.055,7,9.57,5.485A.745.745,0,0,0,8.516,4.431L7,5.946,5.485,4.431A.745.745,0,1,0,4.431,5.485L5.946,7,4.431,8.515A.745.745,0,0,0,5.485,9.569L7,8.055Z" opacity="0.5"/>
  </g>
</svg>
