
<svg xmlns="http://www.w3.org/2000/svg" xmlns:xlink="http://www.w3.org/1999/xlink" width="100%" height="100%" viewBox="0 0 232 128">
  <defs>
    <clipPath id="clip-Horangi_Logo_-_Horizontal_-_Orange_face_light_font">
      <rect width="232" height="128"/>
    </clipPath>
  </defs>
  <g id="Horangi_Logo_-_Horizontal_-_Orange_face_light_font" data-name="Horangi Logo - Horizontal - Orange face light font" clip-path="url(#clip-Horangi_Logo_-_Horizontal_-_Orange_face_light_font)">
    <g id="Group_1" data-name="Group 1" transform="translate(-284.859 -512.381)">
      <g id="Group_5440" data-name="Group 5440" transform="translate(389.069 558.351)">
        <g id="Group_5436" data-name="Group 5436" transform="translate(1.523)">
          <g id="Group_5435" data-name="Group 5435">
            <path id="Path_3613" data-name="Path 3613" d="M220.51,47.12V63.167h-2.678V56.611h-9.513V53.933h9.513V47.12Z" transform="translate(-208.319 -47.056)" fill="#f7f7f7"/>
            <path id="Path_3614" data-name="Path 3614" d="M257.145,47.065a7.655,7.655,0,0,1,3.053.621,8.42,8.42,0,0,1,2.561,1.7,8.141,8.141,0,0,1,1.767,2.549,7.892,7.892,0,0,1,.032,6.213,8.416,8.416,0,0,1-1.7,2.56,8.123,8.123,0,0,1-2.55,1.767,7.917,7.917,0,0,1-6.223.032A8.135,8.135,0,0,1,251.52,60.8a8.335,8.335,0,0,1-1.757-2.56,7.626,7.626,0,0,1-.653-3.138,7.708,7.708,0,0,1,.621-3.074,8.087,8.087,0,0,1,4.253-4.274A8.32,8.32,0,0,1,257.145,47.065Zm.01,13.39a5.086,5.086,0,0,0,2.021-.416,5.506,5.506,0,0,0,1.71-1.144,5.572,5.572,0,0,0,1.176-1.7,5.012,5.012,0,0,0,.439-2.085,5.137,5.137,0,0,0-.417-2.042,5.5,5.5,0,0,0-1.144-1.71,5.579,5.579,0,0,0-1.7-1.176,5.018,5.018,0,0,0-2.084-.438,5.13,5.13,0,0,0-2.042.417,5.484,5.484,0,0,0-2.887,2.854,5.089,5.089,0,0,0-.439,2.1,5.037,5.037,0,0,0,.417,2.042,5.442,5.442,0,0,0,1.144,1.679,5.519,5.519,0,0,0,1.7,1.154A5.71,5.71,0,0,0,257.155,60.455Z" transform="translate(-233.498 -47.022)" fill="#f7f7f7"/>
            <path id="Path_3615" data-name="Path 3615" d="M312.428,63.133h-2.978L305.9,56.577h-3.289v6.555h-2.678V47.065h7.734a5.16,5.16,0,0,1,2.228.6,5.808,5.808,0,0,1,.814.578,3.579,3.579,0,0,1,.718.836,4.5,4.5,0,0,1,.5,1.168,5.754,5.754,0,0,1,.193,1.575,5.293,5.293,0,0,1-.471,2.389,4.871,4.871,0,0,1-1.061,1.457,3.6,3.6,0,0,1-1.114.718,3.1,3.1,0,0,1-.632.193ZM302.616,53.9h5.062a1.8,1.8,0,0,0,.876-.256,1.826,1.826,0,0,0,.619-.618,2.219,2.219,0,0,0,.278-1.215,2.174,2.174,0,0,0-.278-1.194,1.83,1.83,0,0,0-.619-.618,1.8,1.8,0,0,0-.876-.256h-5.062Z" transform="translate(-264.872 -47.022)" fill="#f7f7f7"/>
            <path id="Path_3616" data-name="Path 3616" d="M346.31,47.008l8.056,16.09H351.41l-1.821-3.256h-6.535L341.533,63.1h-3.257Zm-1.778,10.113h3.856l-2.078-4.135Z" transform="translate(-288.536 -46.987)" fill="#f7f7f7"/>
            <path id="Path_3617" data-name="Path 3617" d="M400.744,46.952V63.063L389.71,53.23v7.734l-2.678,2.1V46.952l11.034,10.134V49.052Z" transform="translate(-318.631 -46.952)" fill="#f7f7f7"/>
            <path id="Path_3618" data-name="Path 3618" d="M445.615,54.221v6.562a9.12,9.12,0,0,1-1.628,1.175,10.014,10.014,0,0,1-1.864.812,7.7,7.7,0,0,1-2.442.363,7.487,7.487,0,0,1-3.032-.632,8.411,8.411,0,0,1-4.339-4.285,7.524,7.524,0,0,1-.664-3.139,7.439,7.439,0,0,1,.632-3.01,8.414,8.414,0,0,1,4.285-4.339,7.478,7.478,0,0,1,3.118-.664,7.589,7.589,0,0,1,3.374.718,8.15,8.15,0,0,1,2.56,1.96,2.005,2.005,0,0,1-.321.257q-.322.235-.707.514-.45.321-1.05.728a4.756,4.756,0,0,0-1.693-1.093,5.833,5.833,0,0,0-2.164-.407,4.69,4.69,0,0,0-1.939.428,6.161,6.161,0,0,0-1.714,1.146A5.74,5.74,0,0,0,434.8,53.01a4.692,4.692,0,0,0-.471,2.068,4.8,4.8,0,0,0,.429,1.971,5.987,5.987,0,0,0,1.157,1.725,5.716,5.716,0,0,0,1.7,1.221,4.779,4.779,0,0,0,2.068.46,6.558,6.558,0,0,0,1.768-.235,5.8,5.8,0,0,0,1.532-.664V56.9h-3.3V54.221Z" transform="translate(-346.17 -47.022)" fill="#f7f7f7"/>
            <path id="Path_3619" data-name="Path 3619" d="M477.95,47.065h2.678v13.99l-2.678,2.078Z" transform="translate(-374.751 -47.022)" fill="#f7f7f7"/>
          </g>
        </g>
        <g id="Group_5438" data-name="Group 5438" transform="translate(0 23.048)">
          <g id="Group_5437" data-name="Group 5437">
            <path id="Path_3620" data-name="Path 3620" d="M209.16,116.829a4.563,4.563,0,0,1-1.864-.386,4.955,4.955,0,0,1-2.571-2.571,4.565,4.565,0,0,1-.386-1.864,4.676,4.676,0,0,1,.379-1.87,4.873,4.873,0,0,1,1.035-1.536,4.969,4.969,0,0,1,1.536-1.041,4.608,4.608,0,0,1,1.87-.386,4.487,4.487,0,0,1,2.969,1.028l-.334.348a3.727,3.727,0,0,0-1.221-.643,4.907,4.907,0,0,0-1.414-.193,4.2,4.2,0,0,0-1.678.335,4.271,4.271,0,0,0-2.6,3.972,4.224,4.224,0,0,0,1.253,3.034,4.277,4.277,0,0,0,3.028,1.234,4.889,4.889,0,0,0,1.35-.18,3.792,3.792,0,0,0,1.2-.592l.373.335A4.6,4.6,0,0,1,209.16,116.829Z" transform="translate(-204.339 -107.173)" fill="#f7f7f7"/>
            <path id="Path_3621" data-name="Path 3621" d="M231.184,116.829v-4.551l-3.844-5.1h.63l3.471,4.615,3.484-4.615h.6l-3.831,5.1v4.551Z" transform="translate(-218.537 -107.173)" fill="#f7f7f7"/>
            <path id="Path_3622" data-name="Path 3622" d="M256.8,111.918a2.816,2.816,0,0,1,1.08.386,2.643,2.643,0,0,1,.4.308,2.106,2.106,0,0,1,.592.99,2.733,2.733,0,0,1,.09.733,2.42,2.42,0,0,1-.206,1.048,2.267,2.267,0,0,1-.508.707,2.323,2.323,0,0,1-.643.424,4.2,4.2,0,0,1-.617.219,2.869,2.869,0,0,1-.424.083c-.1.008-.118.013-.058.013h-4.23v-9.655h3.343a2.969,2.969,0,0,1,1.221.322,2.115,2.115,0,0,1,.842.778,2.575,2.575,0,0,1,.283.649,3.088,3.088,0,0,1,.109.862,2.3,2.3,0,0,1-.643,1.7A2.073,2.073,0,0,1,256.8,111.918Zm-3.985-.09h2.8a2.645,2.645,0,0,0,.964-.3,2.591,2.591,0,0,0,.36-.251,1.507,1.507,0,0,0,.315-.36,1.941,1.941,0,0,0,.219-.495,2.26,2.26,0,0,0,.083-.643,2.56,2.56,0,0,0-.083-.694,2.018,2.018,0,0,0-.219-.514,1.461,1.461,0,0,0-.315-.366,2.628,2.628,0,0,0-.36-.251,2.088,2.088,0,0,0-.964-.244h-2.8Zm3.509,4.461a2.721,2.721,0,0,0,1.054-.244,2.287,2.287,0,0,0,.386-.232,1.545,1.545,0,0,0,.341-.347,1.741,1.741,0,0,0,.238-.482,2.363,2.363,0,0,0,0-1.292,1.826,1.826,0,0,0-.238-.495,1.493,1.493,0,0,0-.341-.354,2.312,2.312,0,0,0-.386-.232,2.727,2.727,0,0,0-1.054-.244h-3.509v3.921Z" transform="translate(-233.93 -107.173)" fill="#f7f7f7"/>
            <path id="Path_3623" data-name="Path 3623" d="M280.792,107.174v.54h-5.361v4.1h4.641v.566l-4.641-.013v3.921h5.361v.54h-5.9v-9.655Z" transform="translate(-247.888 -107.173)" fill="#f7f7f7"/>
            <path id="Path_3624" data-name="Path 3624" d="M295.178,107.174h5.181a3.091,3.091,0,0,1,1.247.322,2.248,2.248,0,0,1,.456.308,2.046,2.046,0,0,1,.4.47,2.576,2.576,0,0,1,.283.649,3.064,3.064,0,0,1,.11.862,2.84,2.84,0,0,1-.116.855,2.343,2.343,0,0,1-.309.643,2.048,2.048,0,0,1-.437.463,2.725,2.725,0,0,1-.489.3,3.475,3.475,0,0,1-1.337.322l2.34,4.461h-.578l-2.34-4.461h-3.869v4.461h-.54Zm.54,4.654h4.641a2.234,2.234,0,0,0,.977-.257,1.927,1.927,0,0,0,.36-.238,1.451,1.451,0,0,0,.315-.366,2.04,2.04,0,0,0,.219-.508,2.463,2.463,0,0,0,.083-.675,2.536,2.536,0,0,0-.083-.681,2.029,2.029,0,0,0-.219-.514,1.465,1.465,0,0,0-.315-.366,2.651,2.651,0,0,0-.36-.251,2.233,2.233,0,0,0-.977-.257h-4.641Z" transform="translate(-260.41 -107.173)" fill="#f7f7f7"/>
            <path id="Path_3625" data-name="Path 3625" d="M330.441,112.006a5.146,5.146,0,0,1,.778.276,1.923,1.923,0,0,1,.6.424,1.838,1.838,0,0,1,.392.662,2.992,2.992,0,0,1,.142.99,2.248,2.248,0,0,1-.263,1.106,2.294,2.294,0,0,1-.695.778,3.069,3.069,0,0,1-.983.45,4.05,4.05,0,0,1-1.138.135,4.548,4.548,0,0,1-1.15-.174,3.256,3.256,0,0,1-1.015-.482l.36-.36a3.317,3.317,0,0,0,.861.334,4.534,4.534,0,0,0,.958.129,3.767,3.767,0,0,0,.939-.09,2.521,2.521,0,0,0,.816-.334,1.715,1.715,0,0,0,.572-.6,1.764,1.764,0,0,0,.212-.887,1.745,1.745,0,0,0-.289-1.067,2.048,2.048,0,0,0-.746-.611,4.853,4.853,0,0,0-1.029-.36q-.572-.135-1.137-.315a2.16,2.16,0,0,1-.726-.354,2.419,2.419,0,0,1-.534-.553,2.5,2.5,0,0,1-.334-.688,2.591,2.591,0,0,1-.116-.771,2.207,2.207,0,0,1,.263-1.1,2.375,2.375,0,0,1,.694-.778,3.009,3.009,0,0,1,.983-.456,4.027,4.027,0,0,1,1.131-.135,4.379,4.379,0,0,1,1.144.18,3.576,3.576,0,0,1,1.015.475l-.36.36a3.523,3.523,0,0,0-.855-.341,4.216,4.216,0,0,0-.951-.135,3.8,3.8,0,0,0-.938.09,2.465,2.465,0,0,0-.81.334,1.74,1.74,0,0,0-.565.6,1.792,1.792,0,0,0-.213.9,1.934,1.934,0,0,0,.257,1.08,1.905,1.905,0,0,0,.675.617,3.95,3.95,0,0,0,.951.366Q329.875,111.839,330.441,112.006Z" transform="translate(-280.003 -107.171)" fill="#f7f7f7"/>
            <path id="Path_3626" data-name="Path 3626" d="M351.562,107.174v.54H346.2v4.1h4.641v.566l-4.641-.013v3.921h5.361v.54h-5.9v-9.655Z" transform="translate(-291.571 -107.173)" fill="#f7f7f7"/>
            <path id="Path_3627" data-name="Path 3627" d="M368.714,116.829a4.565,4.565,0,0,1-1.864-.386,4.959,4.959,0,0,1-2.571-2.571,4.571,4.571,0,0,1-.385-1.864,4.677,4.677,0,0,1,.379-1.87,4.868,4.868,0,0,1,1.035-1.536,4.964,4.964,0,0,1,1.536-1.041,4.608,4.608,0,0,1,1.87-.386,4.488,4.488,0,0,1,2.97,1.028l-.334.348a3.731,3.731,0,0,0-1.221-.643,4.907,4.907,0,0,0-1.415-.193,4.2,4.2,0,0,0-1.677.335,4.271,4.271,0,0,0-2.6,3.972,4.224,4.224,0,0,0,1.253,3.034,4.276,4.276,0,0,0,3.027,1.234,4.891,4.891,0,0,0,1.35-.18,3.8,3.8,0,0,0,1.2-.592l.373.335A4.6,4.6,0,0,1,368.714,116.829Z" transform="translate(-302.825 -107.173)" fill="#f7f7f7"/>
            <path id="Path_3628" data-name="Path 3628" d="M392.466,116.829a4,4,0,0,1-1.761-.334,2.858,2.858,0,0,1-1.6-1.935,4.732,4.732,0,0,1-.148-1.137v-6.248h.54v6.248a3.469,3.469,0,0,0,.212,1.273,2.359,2.359,0,0,0,.6.893,2.453,2.453,0,0,0,.932.527,4.4,4.4,0,0,0,2.449,0,2.3,2.3,0,0,0,1.536-1.452,3.757,3.757,0,0,0,.212-1.331v-6.158h.54v6.248a4.735,4.735,0,0,1-.148,1.137,2.857,2.857,0,0,1-1.6,1.935A4,4,0,0,1,392.466,116.829Z" transform="translate(-318.296 -107.173)" fill="#f7f7f7"/>
            <path id="Path_3629" data-name="Path 3629" d="M413.5,107.174h5.181a3.09,3.09,0,0,1,1.247.322,2.253,2.253,0,0,1,.456.308,2.039,2.039,0,0,1,.4.47,2.586,2.586,0,0,1,.283.649,3.076,3.076,0,0,1,.109.862,2.84,2.84,0,0,1-.116.855,2.35,2.35,0,0,1-.308.643,2.042,2.042,0,0,1-.437.463,2.734,2.734,0,0,1-.489.3,3.476,3.476,0,0,1-1.337.322l2.34,4.461h-.579l-2.34-4.461h-3.87v4.461h-.54Zm.54,4.654h4.641a2.232,2.232,0,0,0,.977-.257,1.933,1.933,0,0,0,.36-.238,1.465,1.465,0,0,0,.315-.366,2.055,2.055,0,0,0,.219-.508,2.462,2.462,0,0,0,.083-.675,2.536,2.536,0,0,0-.083-.681,2.044,2.044,0,0,0-.219-.514,1.478,1.478,0,0,0-.315-.366,2.662,2.662,0,0,0-.36-.251,2.232,2.232,0,0,0-.977-.257h-4.641Z" transform="translate(-333.447 -107.173)" fill="#f7f7f7"/>
            <path id="Path_3630" data-name="Path 3630" d="M439.308,107.174v9.655h-.527v-9.655Z" transform="translate(-349.05 -107.173)" fill="#f7f7f7"/>
            <path id="Path_3631" data-name="Path 3631" d="M447.128,107.714h-3.651v-.54h7.842v.54h-3.651v9.115h-.54Z" transform="translate(-351.949 -107.173)" fill="#f7f7f7"/>
            <path id="Path_3632" data-name="Path 3632" d="M469.784,116.829v-4.551l-3.844-5.1h.63l3.471,4.615,3.484-4.615h.6l-3.831,5.1v4.551Z" transform="translate(-365.815 -107.173)" fill="#f7f7f7"/>
          </g>
        </g>
        <g id="Group_5439" data-name="Group 5439" transform="translate(0.08 0.103)">
          <rect id="Rectangle_2261" data-name="Rectangle 2261" width="2.659" height="16.008" fill="#f7f7f7"/>
        </g>
      </g>
      <g id="Group_5441" data-name="Group 5441" transform="translate(303.859 540.381)">
        <path id="Path_3633" data-name="Path 3633" d="M7,21.3V31.484l8.053-4.649Z" transform="translate(-4.321 -13.145)" fill="none"/>
        <path id="Path_3634" data-name="Path 3634" d="M75.363,153.2l-9.454,5.458,9.217,5.321,9.454-5.458Z" transform="translate(-40.683 -94.567)" fill="none"/>
        <path id="Path_3635" data-name="Path 3635" d="M57.864,40.612l.013,2.906-14.712-.043,26.667-16.9L39.189,8.88,8.353,26.683,35.272,43.474l-14.52.044.155-2.906h4.456L7.69,29.55V55.27l2.464-1.48,5.627-.1L9.366,57.678,12.179,59.3l8.982-5.511,5.627-.1L15.069,60.97,27.03,67.875l10.839-6.258V55.672L30.932,51.63h17.08l-7.464,4.3v5.439l11.039,6.373,11.646-6.724-11.79-7.32,5.627.1,9.054,5.555,2.7-1.562-6.587-4.089,5.627.1,2.82,1.693v-25.9L53.375,40.612Zm-34.193-14.6,15.483-8.984,15.328,8.92L51.715,27.7,39.152,20.479l-12.7,7.285Zm9.826,6.2-2.776-1.752L39.109,25.6,47.5,30.378l-2.788,1.769-5.56-3.21Z" transform="translate(-4.747 -5.481)" fill="none"/>
        <path id="Path_3636" data-name="Path 3636" d="M151.588,26.713l7.8,4.506V21.225Z" transform="translate(-93.569 -13.102)" fill="none"/>
        <path id="Path_3637" data-name="Path 3637" d="M55.247,12.012,34.442,0l-20.8,12.008L0,2.552V52.928L34.442,72.813,68.885,52.928V2.579ZM2.679,8.151l8.053,5.539L2.679,18.338ZM25.226,64.093l9.454-5.458L43.9,63.956l-9.454,5.458ZM65.942,50l-2.82-1.693-5.627-.1L64.082,52.3l-2.7,1.562-9.054-5.555-5.627-.1,11.79,7.32L46.84,62.257,35.8,55.884V50.444l7.464-4.3H26.185l6.937,4.042v5.945L22.283,62.394,10.322,55.489l11.72-7.276-5.627.1L7.432,53.82,4.619,52.2l6.416-3.983-5.627.1-2.464,1.48V24.068L20.616,35.131H16.16l-.155,2.906,14.52-.044L3.606,21.2,34.442,3.4,65.086,21.09l-26.667,16.9,14.712.043-.013-2.906h-4.49L65.942,24.1Zm-7.923-36.39,7.8-5.488v9.994Z" fill="#c37231"/>
        <path id="Path_3638" data-name="Path 3638" d="M77.488,40.843l2.767-1.755-15.328-8.92L49.444,39.152,52.22,40.9l12.7-7.284Z" transform="translate(-30.52 -18.622)" fill="#c37231"/>
        <path id="Path_3639" data-name="Path 3639" d="M84.64,57.351l-8.388-4.774-8.388,4.857,2.776,1.752,5.651-3.277,5.56,3.21Z" transform="translate(-41.89 -32.454)" fill="#c37231"/>
      </g>
    </g>
  </g>
</svg>
